<svg xmlns="http://www.w3.org/2000/svg" viewBox="0 0 300 300">
  <!-- Base head silhouette -->
  <path d="M150,30 C100,30 65,60 60,120 C55,180 80,230 110,250 C140,270 160,270 190,250 C220,230 245,180 240,120 C235,60 200,30 150,30 Z" fill="#1a1a2e" stroke="#000" stroke-width="3" />
  
  <!-- Gradient background inside head -->
  <defs>
    <linearGradient id="circuitGradient" x1="0%" y1="0%" x2="100%" y2="0%">
      <stop offset="0%" stop-color="#ffc107" />
      <stop offset="50%" stop-color="#ffc107" />
      <stop offset="50%" stop-color="#00b0ff" />
      <stop offset="100%" stop-color="#00b0ff" />
    </linearGradient>
  </defs>
  
  <!-- Background fill with gradient -->
  <path d="M150,40 C105,40 75,65 70,120 C65,175 88,220 115,240 C142,260 158,260 185,240 C212,220 235,175 230,120 C225,65 195,40 150,40 Z" fill="url(#circuitGradient)" />
  
  <!-- Circuit paths - Left side (yellow) -->
  <path d="M80,100 L140,100 L140,120 L100,120 L100,150" fill="none" stroke="#1a1a2e" stroke-width="4" />
  <path d="M80,180 L120,180 L120,130 L140,130 L140,160" fill="none" stroke="#1a1a2e" stroke-width="4" />
  <path d="M110,200 L110,160 L130,160 L130,140" fill="none" stroke="#1a1a2e" stroke-width="4" />
  <path d="M90,160 L130,160" fill="none" stroke="#1a1a2e" stroke-width="4" />
  
  <!-- Circuit paths - Right side (blue) -->
  <path d="M220,100 L160,100 L160,120 L200,120 L200,150" fill="none" stroke="#1a1a2e" stroke-width="4" />
  <path d="M220,180 L180,180 L180,130 L160,130 L160,160" fill="none" stroke="#1a1a2e" stroke-width="4" />
  <path d="M190,200 L190,160 L170,160 L170,140" fill="none" stroke="#1a1a2e" stroke-width="4" />
  <path d="M210,160 L170,160" fill="none" stroke="#1a1a2e" stroke-width="4" />
  
  <!-- Circuit nodes -->
  <circle cx="80" cy="100" r="6" fill="#1a1a2e" />
  <circle cx="80" cy="180" r="6" fill="#1a1a2e" />
  <circle cx="110" cy="200" r="6" fill="#1a1a2e" />
  <circle cx="220" cy="100" r="6" fill="#1a1a2e" />
  <circle cx="220" cy="180" r="6" fill="#1a1a2e" />
  <circle cx="190" cy="200" r="6" fill="#1a1a2e" />
  <circle cx="140" cy="100" r="6" fill="#1a1a2e" />
  <circle cx="140" cy="130" r="6" fill="#1a1a2e" />
  <circle cx="160" cy="100" r="6" fill="#1a1a2e" />
  <circle cx="160" cy="130" r="6" fill="#1a1a2e" />
  <circle cx="100" cy="150" r="6" fill="#1a1a2e" />
  <circle cx="200" cy="150" r="6" fill="#1a1a2e" />
  <circle cx="90" cy="160" r="6" fill="#1a1a2e" />
  <circle cx="130" cy="160" r="6" fill="#1a1a2e" />
  <circle cx="170" cy="160" r="6" fill="#1a1a2e" />
  <circle cx="210" cy="160" r="6" fill="#1a1a2e" />
  
  <!-- Additional decorative outer nodes -->
  <circle cx="40" cy="150" r="7" fill="#ffd54f" stroke="#1a1a2e" stroke-width="2" />
  <circle cx="260" cy="150" r="7" fill="#4fc3f7" stroke="#1a1a2e" stroke-width="2" />
  <circle cx="150" cy="15" r="7" fill="#4db6ac" stroke="#1a1a2e" stroke-width="2" />
  <circle cx="250" cy="80" r="7" fill="#4fc3f7" stroke="#1a1a2e" stroke-width="2" />
  <path d="M245,80 L260,65" stroke="#1a1a2e" stroke-width="2" fill="none" />
  
  <!-- Electrical pulses on left side -->
  <circle cx="80" cy="100" r="3" fill="#ffffff">
    <animate attributeName="opacity" values="0;1;0" dur="1.5s" begin="0s" repeatCount="indefinite" />
  </circle>
  <circle cx="110" cy="100" r="3" fill="#ffffff">
    <animate attributeName="opacity" values="0;1;0" dur="1.5s" begin="0.2s" repeatCount="indefinite" />
  </circle>
  <circle cx="140" cy="100" r="3" fill="#ffffff">
    <animate attributeName="opacity" values="0;1;0" dur="1.5s" begin="0.4s" repeatCount="indefinite" />
  </circle>
  <circle cx="140" cy="120" r="3" fill="#ffffff">
    <animate attributeName="opacity" values="0;1;0" dur="1.5s" begin="0.6s" repeatCount="indefinite" />
  </circle>
  <circle cx="100" cy="120" r="3" fill="#ffffff">
    <animate attributeName="opacity" values="0;1;0" dur="1.5s" begin="0.8s" repeatCount="indefinite" />
  </circle>
  <circle cx="100" cy="150" r="3" fill="#ffffff">
    <animate attributeName="opacity" values="0;1;0" dur="1.5s" begin="1s" repeatCount="indefinite" />
  </circle>
  
  <circle cx="80" cy="180" r="3" fill="#ffffff">
    <animate attributeName="opacity" values="0;1;0" dur="2s" begin="0.5s" repeatCount="indefinite" />
  </circle>
  <circle cx="120" cy="180" r="3" fill="#ffffff">
    <animate attributeName="opacity" values="0;1;0" dur="2s" begin="0.7s" repeatCount="indefinite" />
  </circle>
  <circle cx="120" cy="130" r="3" fill="#ffffff">
    <animate attributeName="opacity" values="0;1;0" dur="2s" begin="0.9s" repeatCount="indefinite" />
  </circle>
  <circle cx="90" cy="160" r="3" fill="#ffffff">
    <animate attributeName="opacity" values="0;1;0" dur="2s" begin="1.1s" repeatCount="indefinite" />
  </circle>
  <circle cx="130" cy="160" r="3" fill="#ffffff">
    <animate attributeName="opacity" values="0;1;0" dur="2s" begin="1.3s" repeatCount="indefinite" />
  </circle>
  
  <!-- Electrical pulses on right side -->
  <circle cx="220" cy="100" r="3" fill="#ffffff">
    <animate attributeName="opacity" values="0;1;0" dur="1.5s" begin="0.3s" repeatCount="indefinite" />
  </circle>
  <circle cx="190" cy="100" r="3" fill="#ffffff">
    <animate attributeName="opacity" values="0;1;0" dur="1.5s" begin="0.5s" repeatCount="indefinite" />
  </circle>
  <circle cx="160" cy="100" r="3" fill="#ffffff">
    <animate attributeName="opacity" values="0;1;0" dur="1.5s" begin="0.7s" repeatCount="indefinite" />
  </circle>
  <circle cx="160" cy="120" r="3" fill="#ffffff">
    <animate attributeName="opacity" values="0;1;0" dur="1.5s" begin="0.9s" repeatCount="indefinite" />
  </circle>
  <circle cx="200" cy="120" r="3" fill="#ffffff">
    <animate attributeName="opacity" values="0;1;0" dur="1.5s" begin="1.1s" repeatCount="indefinite" />
  </circle>
  <circle cx="200" cy="150" r="3" fill="#ffffff">
    <animate attributeName="opacity" values="0;1;0" dur="1.5s" begin="1.3s" repeatCount="indefinite" />
  </circle>
  
  <circle cx="220" cy="180" r="3" fill="#ffffff">
    <animate attributeName="opacity" values="0;1;0" dur="2s" begin="0.2s" repeatCount="indefinite" />
  </circle>
  <circle cx="180" cy="180" r="3" fill="#ffffff">
    <animate attributeName="opacity" values="0;1;0" dur="2s" begin="0.4s" repeatCount="indefinite" />
  </circle>
  <circle cx="180" cy="130" r="3" fill="#ffffff">
    <animate attributeName="opacity" values="0;1;0" dur="2s" begin="0.6s" repeatCount="indefinite" />
  </circle>
  <circle cx="210" cy="160" r="3" fill="#ffffff">
    <animate attributeName="opacity" values="0;1;0" dur="2s" begin="0.8s" repeatCount="indefinite" />
  </circle>
  <circle cx="170" cy="160" r="3" fill="#ffffff">
    <animate attributeName="opacity" values="0;1;0" dur="2s" begin="1s" repeatCount="indefinite" />
  </circle>
  
  <!-- Electrical flashes on outer decorative elements -->
  <circle cx="40" cy="150" r="3" fill="#ffffff">
    <animate attributeName="opacity" values="0;1;0" dur="3s" begin="1.5s" repeatCount="indefinite" />
  </circle>
  <circle cx="260" cy="150" r="3" fill="#ffffff">
    <animate attributeName="opacity" values="0;1;0" dur="3s" begin="0.5s" repeatCount="indefinite" />
  </circle>
  <circle cx="150" cy="15" r="3" fill="#ffffff">
    <animate attributeName="opacity" values="0;1;0" dur="3s" begin="2s" repeatCount="indefinite" />
  </circle>
  <circle cx="250" cy="80" r="3" fill="#ffffff">
    <animate attributeName="opacity" values="0;1;0" dur="3s" begin="1s" repeatCount="indefinite" />
  </circle>
</svg>
